<svg id="Layer_5" enable-background="new 0 0 64 64" height="512" viewBox="0 0 64 64" width="512" xmlns="http://www.w3.org/2000/svg"><g><g><path d="m23 48h8v8h-8z" fill="#f0bc5e"/></g><g><path d="m7.444 36h9.112c3.795-1.736 6.444-5.561 6.444-10 0-6.065-4.935-11-11-11s-11 4.935-11 11c0 4.439 2.649 8.264 6.444 10z" fill="#f0bc5e"/></g><g><path d="m53.145 3.897-6.578-2.392c-.922-.335-1.888-.505-2.87-.505-2.629 0-5.14 1.255-6.716 3.358l-.508.676c-1.956.259-3.473 1.939-3.473 3.966 0 2.156 1.017 4.98 1.061 5.1l-.061 1.9c0-1.657 1.343-3 3-3h1.194v.016c.395-1.625 1.383-3.067 2.806-4.016 0 0 6 4 11 4h1c1.288 0 2.377.815 2.802 1.954l-.036-.188 1.058-3.943c.117-.465.176-.942.176-1.421 0-2.454-1.55-4.667-3.855-5.505z" fill="#f0bc5e"/></g><g><path d="m49 18h-2c0 1.103-.897 2-2 2s-2-.897-2-2h-2c0 2.206 1.794 4 4 4s4-1.794 4-4z"/><circle cx="48" cy="15" r="1"/><circle cx="42" cy="15" r="1"/><path d="m63 35.773c0-3.279-2.231-6.084-5.426-6.821l-7.753-1.789-.596-2.383c1.715-1.073 2.991-2.773 3.511-4.78h.264c2.206 0 4-1.794 4-4s-1.794-4-4-4h-1c-4.633 0-10.388-3.794-10.445-3.832l-.555-.369-.555.369c-1.405.937-2.433 2.289-2.985 3.832h-.46c-2.206 0-4 1.794-4 4s1.794 4 4 4h.263c.52 2.007 1.796 3.708 3.511 4.78l-.596 2.383-7.753 1.789c-2.938.678-5.038 3.111-5.36 6.048h-23.065c-1.654 0-3 1.346-3 3v22c0 1.654 1.346 3 3 3h28c1.654 0 3-1.346 3-3v-4h28zm-28-19.773c0-1.103.897-2 2-2h.037c-.015.201-.037.401-.037.605v3.395c-1.103 0-2-.897-2-2zm1 14.18 1.728-.399 1.364 2.923-3.092-.515zm4.243 4.991 2.162 4.633-3.883-2.912zm4.757-1.757.261-.261.682 5.46-.943 2.022-.944-2.022.682-5.46zm4.757 1.757 1.721 1.721-3.883 2.912zm4.243-4.991v2.009l-3.092.515 1.364-2.923zm-3.721-.858-2.746 5.884-.481-3.845 2.262-2.262zm4.721-13.322c0 1.103-.897 2-2 2v-4c1.103 0 2 .897 2 2zm-16 2v-3.395c0-1.71.755-3.31 2.047-4.393 1.563.955 5.874 3.379 9.953 3.741v4.047c0 3.309-2.691 6-6 6s-6-2.691-6-6zm6 8c.828 0 1.628-.127 2.38-.362l.513 2.055-2.893 2.893-2.893-2.893.513-2.055c.752.235 1.552.362 2.38.362zm-4.315 3.099 2.262 2.262-.481 3.845-2.746-5.884zm-36.685 7.901h28c.552 0 1 .448 1 1v5h-30v-5c0-.552.448-1 1-1zm28 24h-28c-.552 0-1-.448-1-1v-15h30v15c0 .552-.448 1-1 1zm0-26h-2.934c.308-1.999 1.785-3.631 3.809-4.099l1.125-.259v3.241l4.031.672-2.554 2.554 8.523 6.391v10.5h-9v-16c0-1.654-1.346-3-3-3zm29 19h-4v-14h-2v14h-9v-10.5l8.522-6.391-2.554-2.554 4.032-.672v-3.241l1.125.26c2.281.526 3.875 2.529 3.875 4.871z"/><path d="m48 46h2v2h-2z"/><path d="m48 50h2v2h-2z"/><path d="m5 39h2v2h-2z"/><path d="m9 39h2v2h-2z"/><path d="m13 39h2v2h-2z"/><path d="m19 51h-2v6h-2v-4h-2v4h-2v-10h-2v10h-2v-10h-2v12h16v-2h-2z"/><path d="m23 47h8v2h-8z"/><path d="m23 51h8v2h-8z"/><path d="m23 55h8v2h-8z"/><path d="m11 29c-.552 0-1-.448-1-1h-2c0 1.654 1.346 3 3 3v2h2v-2h3v-3c0-1.654-1.346-3-3-3h-2c-.552 0-1-.448-1-1v-1h3c.552 0 1 .448 1 1h2c0-1.654-1.346-3-3-3v-2h-2v2h-3v3c0 1.654 1.346 3 3 3h2c.552 0 1 .448 1 1v1z"/></g></g></svg>