<svg id="Layer_5" enable-background="new 0 0 64 64" height="512" viewBox="0 0 64 64" width="512" xmlns="http://www.w3.org/2000/svg"><g><g><path d="m35 35h16v5h-16z" fill="#f0bc5e"/></g><g><g><path d="m51 51h-16v-8h16z" fill="#f0bc5e"/></g></g><g><path d="m5 35h16v5h-16z" fill="#f0bc5e"/></g><g><g><path d="m13 21c-2.206 0-4-1.794-4-4s1.794-4 4-4 4 1.794 4 4-1.794 4-4 4z" fill="#f0bc5e"/></g></g><g><path d="m43 14h10v4h-10z" fill="#f0bc5e"/></g><g><path d="m14 20.858c-.322.084-.653.142-1 .142s-.678-.058-1-.142v4.142h-7v8h16v-8h-7zm5 6.142v4h-12v-4z"/><path d="m31 55h24v-24h-24zm2-22h20v20h-20z"/><path d="m60.394 38.411c-.411-1.561-1.032-3.057-1.851-4.46l1.23-2.461-2.773-2.774v-24.716c0-1.654-1.346-3-3-3h-50c-1.654 0-3 1.346-3 3v38c0 1.654 1.346 3 3 3h19v1.721l2.606.869c.411 1.561 1.032 3.057 1.851 4.46l-1.23 2.461 5.262 5.262 2.461-1.23c1.403.819 2.899 1.44 4.46 1.851l.869 2.606h7.441l.869-2.606c1.561-.411 3.057-1.032 4.46-1.852l2.462 1.231 5.261-5.262-1.23-2.461c.819-1.403 1.44-2.899 1.851-4.46l2.607-.869v-7.441zm-57.394-34.411c0-.551.449-1 1-1h50c.551 0 1 .449 1 1v5h-52zm20 39h-19c-.551 0-1-.449-1-1v-31h52v15.715l-.488-.488-2.462 1.231c-1.403-.82-2.899-1.44-4.46-1.852l-.869-2.606h-7.441l-.869 2.606c-1.561.411-3.057 1.032-4.46 1.851l-2.461-1.23-5.262 5.262 1.23 2.461c-.819 1.403-1.44 2.899-1.851 4.46l-2.607.869zm38 2.279-2.294.765-.125.547c-.396 1.725-1.078 3.367-2.026 4.881l-.298.476 1.083 2.168-3.223 3.223-2.168-1.083-.476.298c-1.514.949-3.156 1.63-4.881 2.026l-.547.125-.766 2.295h-4.559l-.765-2.294-.547-.125c-1.725-.396-3.367-1.078-4.881-2.026l-.476-.298-2.168 1.083-3.223-3.223 1.083-2.168-.298-.476c-.949-1.514-1.63-3.156-2.026-4.881l-.125-.547-2.294-.766v-4.559l2.294-.765.125-.547c.396-1.725 1.078-3.367 2.026-4.881l.298-.476-1.083-2.168 3.223-3.223 2.168 1.083.476-.298c1.514-.949 3.156-1.63 4.881-2.026l.547-.125.766-2.294h4.559l.765 2.294.547.125c1.725.396 3.367 1.078 4.881 2.026l.476.298 2.168-1.083 3.223 3.223-1.083 2.168.298.476c.949 1.514 1.63 3.156 2.026 4.881l.125.547 2.294.766z"/><path d="m35 35h2v2h-2z"/><path d="m39 35h12v2h-12z"/><path d="m35 39h16v2h-16z"/><path d="m13 5h2v2h-2z"/><path d="m5 5h2v2h-2z"/><path d="m9 5h2v2h-2z"/><path d="m41 21v-8h-16v3h-8.142c.084.322.142.653.142 1s-.058.678-.142 1h8.142v3zm-14-6h12v4h-12z"/><path d="m5 35h2v2h-2z"/><path d="m9 35h12v2h-12z"/><path d="m5 39h16v2h-16z"/><path d="m43 13h10v2h-10z"/><path d="m43 17h10v2h-10z"/></g></g></svg>