<svg id="Layer_5" enable-background="new 0 0 64 64" height="512" viewBox="0 0 64 64" width="512" xmlns="http://www.w3.org/2000/svg"><g><g><path d="m32 59c-3.006 0-18-.192-18-4 0-.7 0-2.559 8.89-3.54l.22 1.988c-4.338.479-6.256 1.168-6.909 1.557 1.276.778 6.609 1.995 15.799 1.995s14.523-1.217 15.799-1.995c-.653-.389-2.571-1.078-6.909-1.557l.22-1.988c8.89.981 8.89 2.84 8.89 3.54 0 3.808-14.994 4-18 4z"/></g><g><path d="m32 63c-3.006 0-18-.192-18-4v-4h2v3.856c.783.759 6.197 2.144 16 2.144s15.217-1.385 16-2.144v-3.856h2v4c0 3.808-14.994 4-18 4z"/></g><g><path d="m42 55h-20v-7h2v5h16v-5h2z"/></g><g><path d="m9 31h24v6h-24z" fill="#f0bc5e"/></g><g><path d="m59 29.716v-5.432l-1.617-.551c-.046-.117-.095-.233-.146-.35l.755-1.535-3.841-3.84-1.534.755c-.116-.052-.233-.101-.35-.146l-.551-1.617h-5.432l-.551 1.617c-.117.046-.233.095-.35.146l-1.534-.755-3.841 3.84.755 1.535c-.052.116-.101.232-.146.35l-1.617.551v5.432l1.617.551c.046.117.095.233.146.35l-.755 1.533 3.841 3.843 1.534-.756c.116.052.233.101.35.146l.551 1.617h5.432l.551-1.617c.117-.046.233-.095.35-.146l1.534.756 3.841-3.843-.755-1.533c.052-.116.101-.232.146-.35zm-10 1.284c-2.209 0-4-1.791-4-4s1.791-4 4-4 4 1.791 4 4-1.791 4-4 4z" fill="#f0bc5e"/></g><g><path d="m49 32c-2.757 0-5-2.243-5-5s2.243-5 5-5 5 2.243 5 5-2.243 5-5 5zm0-8c-1.654 0-3 1.346-3 3s1.346 3 3 3 3-1.346 3-3-1.346-3-3-3z"/></g><g><path d="m58 7h-21v-3c0-1.654-1.346-3-3-3h-26c-1.654 0-3 1.346-3 3v3.101c-2.279.465-4 2.485-4 4.899v32c0 2.757 2.243 5 5 5h52c2.757 0 5-2.243 5-5v-32c0-2.757-2.243-5-5-5zm-51-3c0-.552.449-1 1-1h26c.551 0 1 .448 1 1v22c0 .552-.449 1-1 1h-26c-.551 0-1-.448-1-1zm-2 5.184v16.816c0 1.654 1.346 3 3 3h26c1.654 0 3-1.346 3-3v-17h21c1.654 0 3 1.346 3 3v27h-58v-27c0-1.302.839-2.402 2-2.816zm53 37.816h-52c-1.654 0-3-1.346-3-3v-3h58v3c0 1.654-1.346 3-3 3z"/><path d="m53 43h2v2h-2z"/><path d="m49 43h2v2h-2z"/><path d="m57 43h2v2h-2z"/><path d="m16.759 21.35-5.442-6.35 5.442-6.35-1.518-1.3-6.558 7.65 6.558 7.65z"/><path d="m26.759 22.65 6.558-7.65-6.558-7.65-1.518 1.3 5.442 6.35-5.442 6.35z"/><path d="m9 31h2v2h-2z"/><path d="m13 31h20v2h-20z"/><path d="m9 35h20v2h-20z"/><path d="m31 35h2v2h-2z"/><path d="m12.938 14h16.125v2h-16.125z" transform="matrix(.124 -.992 .992 .124 3.511 33.977)"/></g></g></svg>