<svg id="Layer_5" enable-background="new 0 0 64 64" height="512" viewBox="0 0 64 64" width="512" xmlns="http://www.w3.org/2000/svg"><g><g><path d="m28 29h4v24h-4z" fill="#f0bc5e"/></g><g><g><path d="m39 13c-2.206 0-4-1.794-4-4s1.794-4 4-4 4 1.794 4 4-1.794 4-4 4z" fill="#f0bc5e"/></g></g><g><g><path d="m27 17c-2.206 0-4-1.794-4-4s1.794-4 4-4 4 1.794 4 4-1.794 4-4 4z" fill="#f0bc5e"/></g></g><g><g><path d="m39 13c-2.206 0-4-1.794-4-4s1.794-4 4-4 4 1.794 4 4-1.794 4-4 4z" fill="#f0bc5e"/></g></g><g><g><path d="m51 21c-2.206 0-4-1.794-4-4s1.794-4 4-4 4 1.794 4 4-1.794 4-4 4z" fill="#f0bc5e"/></g></g><g><path d="m48.347 14.029-5.584-3.723c-.226.648-.608 1.216-1.109 1.664l5.584 3.723c.225-.647.607-1.215 1.109-1.664z"/><path d="m35.649 11.171c-.36-.554-.575-1.204-.622-1.901l-4.677 1.559c.36.554.575 1.204.622 1.901z"/><path d="m15 1v32.308c-2.231.445-4.51.692-6.817.692h-.183c-3.86 0-7 3.14-7 7 0 3.481 2.557 6.368 5.89 6.903l1.11 2.344v8.753c0 2.206 1.794 4 4 4s4-1.794 4-4v-10.106c4.057.936 7.929 2.594 11.445 4.938l.252.168h5.303v-5h30v-48zm-6 45.03c-.273-.007-.543-.03-.817-.03h-.183c-2.757 0-5-2.243-5-5s2.243-5 5-5h.183c.274 0 .544-.023.817-.03zm5 12.97c0 1.103-.897 2-2 2s-2-.897-2-2v-9.203l-.834-1.761c1.629.046 3.243.201 4.834.471zm17-7h-2.7c-5.207-3.41-11.134-5.417-17.3-5.888v-10.224c6.167-.471 12.094-2.478 17.3-5.888h2.7zm-6-22.353v-8.647h4v7h-1.303l-.252.168c-.796.531-1.614 1.018-2.445 1.479zm16 17.353h-4v-30h4zm12 0h-4v-22h4zm8 0h-6v-24h-8v24h-4v-32h-8v32h-2v-19h-2v-9h-8v11.683c-1.931.912-3.942 1.62-6 2.16v-29.843h44z"/><path d="m13 42h2v2h-2z"/><path d="m13 38h2v2h-2z"/></g></g></svg>