<svg id="Layer_5" enable-background="new 0 0 64 64" height="512" viewBox="0 0 64 64" width="512" xmlns="http://www.w3.org/2000/svg"><g><g><path d="m63 19.777v-7.555l-2.802-.713c-.119-.318-.252-.639-.4-.956l1.48-2.489-5.342-5.342-2.489 1.479c-.317-.147-.637-.281-.956-.4l-.714-2.801h-7.555l-.712 2.802c-.319.119-.639.253-.956.4l-2.489-1.479-5.342 5.342 1.48 2.489c-.147.317-.281.638-.4.956l-2.803.713v7.555l2.802.713c.119.318.252.639.4.956l-1.48 2.489 5.342 5.342 2.489-1.479c.317.147.637.281.956.4l.714 2.801h7.555l.713-2.802c.319-.119.639-.253.956-.4l2.489 1.479 5.342-5.342-1.48-2.489c.147-.317.281-.638.4-.956zm-15 4.223c-4.418 0-8-3.582-8-8s3.582-8 8-8 8 3.582 8 8-3.582 8-8 8z" fill="#f0bc5e"/></g><g><path d="m48 25c-4.962 0-9-4.037-9-9s4.038-9 9-9 9 4.037 9 9-4.038 9-9 9zm0-16c-3.86 0-7 3.141-7 7s3.14 7 7 7 7-3.141 7-7-3.14-7-7-7z"/></g><g><path d="m48 21c-2.757 0-5-2.243-5-5s2.243-5 5-5 5 2.243 5 5-2.243 5-5 5zm0-8c-1.654 0-3 1.346-3 3s1.346 3 3 3 3-1.346 3-3-1.346-3-3-3z"/></g><g><path d="m33 36h14v5h-14z" fill="#f0bc5e"/></g><g><path d="m53.446 27.798c-.148.069-.297.124-.446.187v16.015c0 1.654-1.346 3-3 3h-44c-1.654 0-3-1.346-3-3v-28c0-1.654 1.346-3 3-3h27v-.777l2.802-.713c.063-.17.142-.34.213-.51h-30.015c-2.757 0-5 2.243-5 5v28c0 2.757 2.243 5 5 5h12v2.57c-7.975 1.004-8 2.755-8 3.43v4c0 3.808 14.994 4 18 4s18-.192 18-4v-4c0-.675-.025-2.426-8-3.43v-2.57h12c2.757 0 5-2.243 5-5v-15.279zm-33.446 21.202h16v4h-16zm24 9.856c-.783.759-6.197 2.144-16 2.144s-15.217-1.385-16-2.144v-1.786c4.184 1.813 13.675 1.93 16 1.93s11.816-.117 16-1.93zm-.201-3.851c-1.276.778-6.609 1.995-15.799 1.995s-14.523-1.217-15.799-1.995c.594-.353 2.252-.953 5.799-1.419v1.414h20v-1.414c3.547.466 5.206 1.066 5.799 1.419z"/><path d="m49 31v12h-42v-26h26v-2h-26c-1.103 0-2 .897-2 2v26c0 1.103.897 2 2 2h42c1.103 0 2-.897 2-2v-12z"/><path d="m9 30c0 6.065 4.935 11 11 11s11-4.935 11-11-4.935-11-11-11-11 4.935-11 11zm13.155-6h-4.309c.622-1.911 1.474-3 2.155-3s1.532 1.089 2.154 3zm6.786 5h-3.961c-.041-1.015-.146-2.029-.31-3h3.381c.46.923.771 1.932.89 3zm-8.941 10c-.681 0-1.533-1.089-2.155-3h4.309c-.621 1.911-1.473 3-2.154 3zm-2.65-5c-.166-.901-.285-1.902-.329-3h5.96c-.044 1.098-.163 2.099-.329 3zm-6.291-3h3.961c.041 1.015.146 2.029.31 3h-3.38c-.461-.923-.772-1.932-.891-3zm0-2c.119-1.068.43-2.077.891-3h3.381c-.164.971-.269 1.985-.31 3zm13.921 2h3.961c-.119 1.068-.43 2.077-.891 3h-3.381c.165-.971.269-1.985.311-3zm-2-2h-5.96c.044-1.098.163-2.099.329-3h5.301c.167.901.285 1.902.33 3zm-6.303-7.357c-.355.693-.655 1.49-.899 2.357h-2.468c.921-1.025 2.068-1.838 3.367-2.357zm-3.366 14.357h2.468c.244.867.544 1.664.899 2.357-1.3-.519-2.447-1.332-3.367-2.357zm10.012 2.357c.355-.693.655-1.49.899-2.357h2.468c-.921 1.025-2.068 1.838-3.367 2.357zm3.366-14.357h-2.468c-.244-.867-.544-1.664-.899-2.357 1.3.519 2.447 1.332 3.367 2.357z"/><path d="m33 39h2v2h-2z"/><path d="m37 39h10v2h-10z"/><path d="m33 35h14v2h-14z"/></g></g></svg>